{"title":"The Masked Saint 2016 Movies HDRip XViD New Source +Sample ☻rDX☻","uid":14189157,"size":739147783,"categoryP":"video","categoryS":"movies","magnet":"?xt=urn:btih:72d9f831817e1b56559c6354e55785262f6313ef&amp;dn=The+Masked+Saint+2016+Movies+HDRip+XViD+New+Source+%2BSample+%E2%98%BBrDX%E2%98%BB&amp;tr=udp%3A%2F%2Ftracker.leechers-paradise.org%3A6969&amp;tr=udp%3A%2F%2Fzer0day.ch%3A1337&amp;tr=udp%3A%2F%2Fopen.demonii.com%3A1337&amp;tr=udp%3A%2F%2Ftracker.coppersurfer.tk%3A6969&amp;tr=udp%3A%2F%2Fexodus.desync.com%3A6969","seeders":0,"leechers":1,"uploader":"basicssom","files":3,"time":1459875653,"description":"----------------------------------------------------------------\r\nThe Masked Saint 2016 English Movies HDRip XViD AAC New Source with Sample ~ ☻rDX☻\r\n\r\nSCREEN SHOTS &amp; POSTER:\r\n  \nhttp://mobileshosting.com/2016/4/domain/index.htm  \nhttp://mobileshosting.com/2016/4/domain/1.html  \nhttp://mobileshosting.com/2016/4/domain/2.html  \nhttp://mobileshosting.com/2016/4/domain/3.html  \nhttp://mobileshosting.com/2016/4/domain/4.html  \nhttp://mobileshosting.com/2016/4/domain/5.html  \nhttp://mobileshosting.com/2016/4/domain/6.html  \nhttp://mobileshosting.com/2016/4/domain/7.html  \nhttp://mobileshosting.com/2016/4/domain/8.html  \nhttp://mobileshosting.com/2016/4/domain/9.html  \nhttp://mobileshosting.com/2016/4/domain/10.html\r\n\r\nFormat                                   : Matroska\r\nFormat version                           : Version 4 / Version 2\r\nFile size                                : 693 MiB\r\nDuration                                 : 1h 44mn\r\nOverall bit rate                         : 925 Kbps\r\nMovie name                               : The Masked Saint 2016 English Movies HDRip XViD AAC New Source ☻rDX☻\r\n\r\nVideo\r\nID                                       : 1\r\nFormat                                   : MPEG-4 Visual\r\nFormat profile                           : Advanced   \r\nFormat settings, BVOP                    : Yes\r\nFormat settings, QPel                    : No\r\nFormat settings, GMC                     : No warppoints\r\nFormat settings, Matrix                  : Default (H.263)\r\nCodec ID                                 : V_MS/VFW/FOURCC / XVID\r\nCodec ID/Hint                            : XviD\r\nDuration                                 : 1h 44mn\r\nBit rate                                 : 794 Kbps\r\nWidth                                    : 640 pixels\r\nHeight                                   : 352 pixels\r\nDisplay aspect ratio                     : 16:9\r\nFrame rate mode                          : Constant\r\nFrame rate                               : 24.000 fps\r\nColor space                              : YUV\r\nChroma subsampling                       : 4:2:0\r\nBit depth                                : 8 bits\r\nScan type                                : Progressive\r\nCompression mode                         : Lossy\r\nBits/(Pixel*Frame)                       : 0.147\r\nStream size                              : 595 MiB (86%)\r\nTitle                                    : ☻rDX☻\r\nWriting library                          : XviD 65\r\nDefault                                  : Yes\r\nForced                                   : No\r\n\r\nAudio\r\nID                                       : 2\r\nFormat                                   : MPEG Audio\r\nFormat version                           : Version 1\r\nFormat profile                           : Layer 3\r\nMode                                     : Joint stereo\r\nMode extension                           : MS Stereo\r\nCodec ID                                 : A_MPEG/L3\r\nCodec ID/Hint                            : MP3\r\nDuration                                 : 1h 44mn\r\nBit rate mode                            : Constant\r\nBit rate                                 : 112 Kbps\r\nChannel(s)                               : 2 channels\r\nSampling rate                            : 48.0 KHz\r\nCompression mode                         : Lossy\r\nStream size                              : 84.0 MiB (12%)\r\nTitle                                    : ☻rDX☻\r\nWriting library                          : LAME3.99r\r\nEncoding settings                        : -m j -V 4 -q 3 -lowpass 15.6 -b 112\r\nDefault                                  : Yes\r\nForced                                   : No\r\n\r\nIMDB \nhttp://www.imdb.com/title/tt3103166/","torrent":{"xt":"urn:btih:72d9f831817e1b56559c6354e55785262f6313ef","amp;dn":"The+Masked+Saint+2016+Movies+HDRip+XViD+New+Source+%2BSample+%E2%98%BBrDX%E2%98%BB","amp;tr":["udp%3A%2F%2Ftracker.leechers-paradise.org%3A6969","udp%3A%2F%2Fzer0day.ch%3A1337","udp%3A%2F%2Fopen.demonii.com%3A1337","udp%3A%2F%2Ftracker.coppersurfer.tk%3A6969","udp%3A%2F%2Fexodus.desync.com%3A6969"],"infoHash":"72d9f831817e1b56559c6354e55785262f6313ef","infoHashBuffer":{"type":"Buffer","data":[114,217,248,49,129,126,27,86,85,156,99,84,229,87,133,38,47,99,19,239]},"announce":[],"urlList":[]}}